<?xml version="1.0" encoding="utf-8"?>
<!-- Generator: Adobe Illustrator 17.0.0, SVG Export Plug-In . SVG Version: 6.00 Build 0)  -->
<!DOCTYPE svg PUBLIC "-//W3C//DTD SVG 1.1//EN" "http://www.w3.org/Graphics/SVG/1.1/DTD/svg11.dtd">
<svg version="1.1" id="Capa_1" xmlns="http://www.w3.org/2000/svg" xmlns:xlink="http://www.w3.org/1999/xlink" x="0px" y="0px"
	 width="96.352px" height="28.346px" viewBox="0 0 96.352 28.346" enable-background="new 0 0 96.352 28.346" xml:space="preserve">
<g>
	<path fill="#FFFFFF" d="M7.285,6.236c2.749,0,4.138,0.822,4.904,1.588h0.169c0.086-0.992,0.284-1.672,1.7-1.672
		c0.711,0,1.561,0.17,2.071,0.369L15.93,8.391c-0.596-0.085-0.992-0.085-1.333-0.085c-1.218,0-1.247,0.651-1.304,1.616
		c0.143,0.425,0.226,0.991,0.226,1.388c0,3.061-2.58,4.733-6.435,4.733c-0.141,0-0.452,0-0.652-0.028
		c-0.906,0.34-2.41,1.078-2.41,2.155c0,0.85,0.936,1.048,1.588,1.048h4.848c3.544,0,5.443,1.305,5.443,4.055
		c-0.027,4.11-5.245,5.073-8.929,5.073C4.591,28.346,0,27.836,0,24.491c0-1.956,1.388-2.919,2.606-3.571v-0.171
		c-1.501-0.481-1.757-1.331-1.757-1.983c0-1.673,1.73-2.723,3.233-3.259l-0.029-0.141c-1.985-0.624-3.175-2.042-3.175-4.083
		C0.907,8.164,3.373,6.236,7.285,6.236 M6.236,21.516c-0.794,0.14-2.608,0.906-2.608,2.495c0,1.785,2.269,2.124,4.026,2.124
		c2.04,0,4.563-0.594,4.591-2.721c0-1.133-0.623-1.899-2.41-1.899H6.236z M7.199,14.004c1.814,0,3.006-0.935,3.006-2.779
		c0-1.842-1.05-2.919-2.864-2.919c-1.928,0-2.919,1.105-2.919,2.948C4.422,12.643,5.272,14.004,7.199,14.004"/>
	<path fill="#FFFFFF" d="M16.595,14.202c0-5.131,2.636-7.966,7.513-7.966c4.903,0,7.482,2.778,7.482,7.966
		c0,5.641-3.061,7.88-7.512,7.88C19.658,22.082,16.595,19.759,16.595,14.202 M27.905,14.202c0-3.912-1.558-5.3-3.797-5.3
		c-2.268,0-3.827,1.359-3.827,5.328c0,3.544,1.473,5.216,3.827,5.216C26.488,19.446,27.905,17.802,27.905,14.202"/>
	<path fill="#FFFFFF" d="M33.871,0H37.5v5.245l-0.085,3.032l0.142,0.057c1.021-0.992,2.297-2.098,4.451-2.098
		c3.996,0,6.152,3.487,6.152,7.654c0,5.074-2.354,8.191-7.399,8.191c-1.617,0-3.346-0.198-5.187-1.104l-0.596,0.85h-1.106V0z
		 M37.5,10.97v7.824c0.936,0.453,2.013,0.709,2.892,0.709c2.976,0,4.082-2.353,4.082-5.444c0-2.976-1.246-5.129-3.289-5.129
		C39.71,8.931,38.407,9.78,37.5,10.97"/>
	<path fill="#C52228" d="M51.345,18.086c1.219,0,2.127,0.851,2.127,2.04c0,1.135-0.907,1.956-2.127,1.956s-2.098-0.821-2.098-1.956
		C49.247,18.937,50.125,18.086,51.345,18.086"/>
	<path fill="#FFFFFF" d="M94.34,18.285c-1.274-1.758-1.701-2.438-3.061-4.593c0.793-1.161,2.806-4.168,4.649-7.2h-3.857
		c-1.474,2.636-2.721,4.536-3.23,5.386h-0.143c-0.793-1.219-1.389-2.182-2.295-3.487c-1.162-1.645-1.815-1.956-3.373-1.956
		c-0.482,0-0.907,0.029-1.446,0.057v2.354c0.539,0,1.162,0.254,1.813,1.133c1.078,1.447,1.672,2.38,2.722,3.968
		c-0.673,0.978-1.765,2.645-2.193,3.178c-0.428,0.533-1.432,1.755-2.79,1.755c-1.833,0-1.86-1.406-1.86-2.375v-4.428
		c0-3.601-1.561-5.84-5.018-5.84c-1.758,0-3.573,0.68-5.329,2.409h-0.2c-0.764-1.53-2.154-2.409-4.194-2.409
		c-1.842,0-3.346,0.652-5.046,2.296L59.29,8.504l-0.369-2.013h-3.032v15.336h3.628V11.226c0.822-1.219,2.353-2.099,3.741-2.099
		c1.702,0,2.523,1.134,2.523,3.458v9.242h3.63V11.055c0.849-1.218,2.296-1.928,3.685-1.928c1.731,0,2.552,1.134,2.552,3.458
		l-0.007,4.749c0,2.423,1.553,4.493,4.917,4.493c4.737,0,5.638-2.305,6.419-3.478c0.651-0.978,1.553-2.533,1.553-2.533h0.141
		c0.963,1.531,1.672,2.723,2.722,4.14c1.19,1.559,1.842,2.012,3.288,2.012c0.567,0,1.248-0.056,1.672-0.141V19.39
		C95.502,19.362,94.936,18.992,94.34,18.285"/>
</g>
</svg>
